<svg width="264" height="43" viewBox="0 0 264 43" fill="none" xmlns="http://www.w3.org/2000/svg">
<path d="M50.6474 28V10.5455H53.8093V17.9347H61.8974V10.5455H65.0678V28H61.8974V20.5852H53.8093V28H50.6474ZM74.0806 28.2557C72.8022 28.2557 71.6942 27.9744 70.7567 27.4119C69.8192 26.8494 69.092 26.0625 68.5749 25.0511C68.0636 24.0398 67.8079 22.858 67.8079 21.5057C67.8079 20.1534 68.0636 18.9687 68.5749 17.9517C69.092 16.9347 69.8192 16.1449 70.7567 15.5824C71.6942 15.0199 72.8022 14.7386 74.0806 14.7386C75.359 14.7386 76.467 15.0199 77.4045 15.5824C78.342 16.1449 79.0664 16.9347 79.5778 17.9517C80.0948 18.9687 80.3533 20.1534 80.3533 21.5057C80.3533 22.858 80.0948 24.0398 79.5778 25.0511C79.0664 26.0625 78.342 26.8494 77.4045 27.4119C76.467 27.9744 75.359 28.2557 74.0806 28.2557ZM74.0977 25.7841C74.7908 25.7841 75.3704 25.5937 75.8363 25.2131C76.3022 24.8267 76.6488 24.3097 76.8761 23.6619C77.109 23.0142 77.2255 22.2926 77.2255 21.4972C77.2255 20.696 77.109 19.9716 76.8761 19.3239C76.6488 18.6705 76.3022 18.1506 75.8363 17.7642C75.3704 17.3778 74.7908 17.1847 74.0977 17.1847C73.3874 17.1847 72.7965 17.3778 72.3249 17.7642C71.859 18.1506 71.5096 18.6705 71.2766 19.3239C71.0494 19.9716 70.9357 20.696 70.9357 21.4972C70.9357 22.2926 71.0494 23.0142 71.2766 23.6619C71.5096 24.3097 71.859 24.8267 72.3249 25.2131C72.7965 25.5937 73.3874 25.7841 74.0977 25.7841ZM87.8299 28.2301C86.8015 28.2301 85.881 27.9659 85.0685 27.4375C84.256 26.9091 83.614 26.142 83.1424 25.1364C82.6708 24.1307 82.435 22.9091 82.435 21.4716C82.435 20.017 82.6737 18.7898 83.1509 17.7898C83.6339 16.7841 84.2844 16.0256 85.1026 15.5142C85.9208 14.9972 86.8327 14.7386 87.8384 14.7386C88.6055 14.7386 89.2362 14.8693 89.7305 15.1307C90.2248 15.3864 90.6168 15.696 90.9066 16.0597C91.1964 16.4176 91.4208 16.7557 91.5799 17.0739H91.7077V10.5455H94.8015V28H91.7674V25.9375H91.5799C91.4208 26.2557 91.1907 26.5937 90.8896 26.9517C90.5884 27.304 90.1907 27.6051 89.6964 27.8551C89.2021 28.1051 88.5799 28.2301 87.8299 28.2301ZM88.6907 25.6989C89.3441 25.6989 89.9009 25.5227 90.3612 25.1705C90.8214 24.8125 91.1708 24.3153 91.4094 23.679C91.6481 23.0426 91.7674 22.3011 91.7674 21.4545C91.7674 20.608 91.6481 19.8722 91.4094 19.2472C91.1765 18.6222 90.8299 18.1364 90.3697 17.7898C89.9151 17.4432 89.3555 17.2699 88.6907 17.2699C88.0032 17.2699 87.4293 17.4489 86.9691 17.8068C86.5089 18.1648 86.1623 18.6591 85.9293 19.2898C85.6964 19.9205 85.5799 20.642 85.5799 21.4545C85.5799 22.2727 85.6964 23.0028 85.9293 23.6449C86.168 24.2812 86.5174 24.7841 86.9776 25.1534C87.4435 25.517 88.0146 25.6989 88.6907 25.6989ZM101.174 10.5455V28H98.0891V10.5455H101.174ZM125.377 16.4347H122.189C122.098 15.9119 121.931 15.4489 121.686 15.0455C121.442 14.6364 121.138 14.2898 120.775 14.0057C120.411 13.7216 119.996 13.5085 119.53 13.3665C119.07 13.2188 118.573 13.1449 118.039 13.1449C117.09 13.1449 116.249 13.3835 115.516 13.8608C114.783 14.3324 114.209 15.0256 113.794 15.9403C113.38 16.8494 113.172 17.9602 113.172 19.2727C113.172 20.608 113.38 21.733 113.794 22.6477C114.215 23.5568 114.789 24.2443 115.516 24.7102C116.249 25.1705 117.087 25.4006 118.03 25.4006C118.553 25.4006 119.042 25.3324 119.496 25.196C119.956 25.054 120.368 24.8466 120.732 24.5739C121.101 24.3011 121.411 23.9659 121.661 23.5682C121.917 23.1705 122.093 22.7159 122.189 22.2045L125.377 22.2216C125.257 23.0511 124.999 23.8295 124.601 24.5568C124.209 25.2841 123.695 25.9261 123.059 26.483C122.422 27.0341 121.678 27.4659 120.826 27.7784C119.973 28.0852 119.027 28.2386 117.988 28.2386C116.453 28.2386 115.084 27.8835 113.88 27.1733C112.675 26.4631 111.726 25.4375 111.033 24.0966C110.34 22.7557 109.993 21.1477 109.993 19.2727C109.993 17.392 110.343 15.7841 111.042 14.4489C111.74 13.108 112.692 12.0824 113.897 11.3722C115.101 10.6619 116.465 10.3068 117.988 10.3068C118.959 10.3068 119.863 10.4432 120.698 10.7159C121.533 10.9886 122.277 11.3892 122.931 11.9176C123.584 12.4403 124.121 13.0824 124.542 13.8438C124.968 14.5994 125.246 15.4631 125.377 16.4347ZM131.221 10.5455V28H128.136V10.5455H131.221ZM134.394 28V14.9091H137.479V28H134.394ZM135.945 13.0511C135.456 13.0511 135.036 12.8892 134.684 12.5653C134.331 12.2358 134.155 11.8409 134.155 11.3807C134.155 10.9148 134.331 10.5199 134.684 10.196C135.036 9.86648 135.456 9.7017 135.945 9.7017C136.439 9.7017 136.86 9.86648 137.206 10.196C137.559 10.5199 137.735 10.9148 137.735 11.3807C137.735 11.8409 137.559 12.2358 137.206 12.5653C136.86 12.8892 136.439 13.0511 135.945 13.0511ZM146.447 28.2557C145.135 28.2557 144.001 27.983 143.047 27.4375C142.098 26.8864 141.368 26.108 140.856 25.1023C140.345 24.0909 140.089 22.9006 140.089 21.5312C140.089 20.1847 140.345 19.0028 140.856 17.9858C141.373 16.9631 142.095 16.1676 143.021 15.5994C143.947 15.0256 145.035 14.7386 146.285 14.7386C147.092 14.7386 147.853 14.8693 148.569 15.1307C149.291 15.3864 149.927 15.7841 150.478 16.3239C151.035 16.8636 151.473 17.5511 151.791 18.3864C152.109 19.2159 152.268 20.2045 152.268 21.3523V22.2983H141.538V20.2188H149.311C149.305 19.6278 149.177 19.1023 148.927 18.642C148.677 18.1761 148.328 17.8097 147.879 17.5426C147.436 17.2756 146.919 17.142 146.328 17.142C145.697 17.142 145.143 17.2955 144.666 17.6023C144.189 17.9034 143.816 18.3011 143.549 18.7955C143.288 19.2841 143.154 19.821 143.149 20.4062V22.2216C143.149 22.983 143.288 23.6364 143.566 24.1818C143.845 24.7216 144.234 25.1364 144.734 25.4261C145.234 25.7102 145.819 25.8523 146.49 25.8523C146.939 25.8523 147.345 25.7898 147.708 25.6648C148.072 25.5341 148.387 25.3438 148.654 25.0938C148.922 24.8438 149.123 24.5341 149.26 24.1648L152.14 24.4886C151.958 25.25 151.612 25.9148 151.1 26.483C150.595 27.0455 149.947 27.483 149.157 27.7955C148.368 28.1023 147.464 28.2557 146.447 28.2557ZM157.963 20.3295V28H154.878V14.9091H157.827V17.1335H157.98C158.282 16.4006 158.762 15.8182 159.421 15.3864C160.086 14.9545 160.907 14.7386 161.884 14.7386C162.787 14.7386 163.574 14.9318 164.245 15.3182C164.921 15.7045 165.444 16.2642 165.813 16.9972C166.188 17.7301 166.373 18.6193 166.367 19.6648V28H163.282V20.142C163.282 19.267 163.054 18.5824 162.6 18.0881C162.151 17.5937 161.529 17.3466 160.733 17.3466C160.194 17.3466 159.713 17.4659 159.293 17.7045C158.878 17.9375 158.551 18.2756 158.313 18.7188C158.08 19.1619 157.963 19.6989 157.963 20.3295ZM176.04 14.9091V17.2955H168.515V14.9091H176.04ZM170.373 11.7727H173.458V24.0625C173.458 24.4773 173.52 24.7955 173.645 25.017C173.776 25.233 173.946 25.3807 174.157 25.4602C174.367 25.5398 174.6 25.5795 174.855 25.5795C175.049 25.5795 175.225 25.5653 175.384 25.5369C175.549 25.5085 175.674 25.483 175.759 25.4602L176.279 27.8722C176.114 27.929 175.878 27.9915 175.571 28.0597C175.27 28.1278 174.901 28.1676 174.463 28.179C173.691 28.2017 172.995 28.0852 172.375 27.8295C171.756 27.5682 171.265 27.1648 170.901 26.6193C170.543 26.0739 170.367 25.392 170.373 24.5739V11.7727ZM183.338 28.2301C182.309 28.2301 181.389 27.9659 180.576 27.4375C179.764 26.9091 179.122 26.142 178.65 25.1364C178.179 24.1307 177.943 22.9091 177.943 21.4716C177.943 20.017 178.181 18.7898 178.659 17.7898C179.142 16.7841 179.792 16.0256 180.61 15.5142C181.429 14.9972 182.341 14.7386 183.346 14.7386C184.113 14.7386 184.744 14.8693 185.238 15.1307C185.733 15.3864 186.125 15.696 186.414 16.0597C186.704 16.4176 186.929 16.7557 187.088 17.0739H187.216V10.5455H190.309V28H187.275V25.9375H187.088C186.929 26.2557 186.699 26.5937 186.397 26.9517C186.096 27.304 185.699 27.6051 185.204 27.8551C184.71 28.1051 184.088 28.2301 183.338 28.2301ZM184.199 25.6989C184.852 25.6989 185.409 25.5227 185.869 25.1705C186.329 24.8125 186.679 24.3153 186.917 23.679C187.156 23.0426 187.275 22.3011 187.275 21.4545C187.275 20.608 187.156 19.8722 186.917 19.2472C186.684 18.6222 186.338 18.1364 185.877 17.7898C185.423 17.4432 184.863 17.2699 184.199 17.2699C183.511 17.2699 182.937 17.4489 182.477 17.8068C182.017 18.1648 181.67 18.6591 181.437 19.2898C181.204 19.9205 181.088 20.642 181.088 21.4545C181.088 22.2727 181.204 23.0028 181.437 23.6449C181.676 24.2812 182.025 24.7841 182.485 25.1534C182.951 25.517 183.522 25.6989 184.199 25.6989ZM199.392 28.2557C198.08 28.2557 196.946 27.983 195.992 27.4375C195.043 26.8864 194.313 26.108 193.801 25.1023C193.29 24.0909 193.034 22.9006 193.034 21.5312C193.034 20.1847 193.29 19.0028 193.801 17.9858C194.319 16.9631 195.04 16.1676 195.966 15.5994C196.892 15.0256 197.98 14.7386 199.23 14.7386C200.037 14.7386 200.799 14.8693 201.515 15.1307C202.236 15.3864 202.873 15.7841 203.424 16.3239C203.98 16.8636 204.418 17.5511 204.736 18.3864C205.054 19.2159 205.213 20.2045 205.213 21.3523V22.2983H194.483V20.2188H202.256C202.25 19.6278 202.123 19.1023 201.873 18.642C201.623 18.1761 201.273 17.8097 200.824 17.5426C200.381 17.2756 199.864 17.142 199.273 17.142C198.642 17.142 198.088 17.2955 197.611 17.6023C197.134 17.9034 196.762 18.3011 196.495 18.7955C196.233 19.2841 196.1 19.821 196.094 20.4062V22.2216C196.094 22.983 196.233 23.6364 196.512 24.1818C196.79 24.7216 197.179 25.1364 197.679 25.4261C198.179 25.7102 198.765 25.8523 199.435 25.8523C199.884 25.8523 200.29 25.7898 200.654 25.6648C201.017 25.5341 201.333 25.3438 201.6 25.0938C201.867 24.8438 202.069 24.5341 202.205 24.1648L205.086 24.4886C204.904 25.25 204.557 25.9148 204.046 26.483C203.54 27.0455 202.892 27.483 202.103 27.7955C201.313 28.1023 200.409 28.2557 199.392 28.2557ZM218.17 18.3693L215.358 18.6761C215.278 18.392 215.139 18.125 214.94 17.875C214.747 17.625 214.485 17.4233 214.156 17.2699C213.826 17.1165 213.423 17.0398 212.946 17.0398C212.304 17.0398 211.764 17.179 211.326 17.4574C210.895 17.7358 210.681 18.0966 210.687 18.5398C210.681 18.9205 210.821 19.2301 211.105 19.4688C211.395 19.7074 211.872 19.9034 212.537 20.0568L214.77 20.5341C216.008 20.8011 216.929 21.2244 217.531 21.804C218.139 22.3835 218.446 23.142 218.451 24.0795C218.446 24.9034 218.204 25.6307 217.727 26.2614C217.255 26.8864 216.599 27.375 215.758 27.7273C214.917 28.0795 213.951 28.2557 212.86 28.2557C211.258 28.2557 209.968 27.9205 208.991 27.25C208.014 26.5739 207.431 25.6335 207.244 24.429L210.252 24.1392C210.389 24.7301 210.679 25.1761 211.122 25.4773C211.565 25.7784 212.142 25.929 212.852 25.929C213.585 25.929 214.173 25.7784 214.616 25.4773C215.065 25.1761 215.289 24.804 215.289 24.3608C215.289 23.9858 215.145 23.6761 214.855 23.4318C214.571 23.1875 214.127 23 213.525 22.8693L211.292 22.4006C210.037 22.1392 209.108 21.6989 208.505 21.0795C207.903 20.4545 207.605 19.6648 207.61 18.7102C207.605 17.9034 207.824 17.2045 208.267 16.6136C208.716 16.017 209.338 15.5568 210.133 15.233C210.934 14.9034 211.858 14.7386 212.903 14.7386C214.437 14.7386 215.645 15.0653 216.525 15.7188C217.412 16.3722 217.96 17.2557 218.17 18.3693ZM223.808 23.892L223.799 20.1676H224.294L228.998 14.9091H232.603L226.816 21.3523H226.177L223.808 23.892ZM220.995 28V10.5455H224.081V28H220.995ZM229.211 28L224.95 22.0426L227.029 19.8693L232.902 28H229.211Z" fill="#A6A6A6"/>
<rect width="42" height="42" rx="10" fill="#6577F3"/>
<g filter="url(#filter0_d_103_10)">
<rect x="11" y="8" width="5" height="23" rx="1" fill="white"/>
<rect x="11" y="8" width="5" height="23" rx="1" fill="white"/>
<rect x="11" y="8" width="5" height="23" rx="1" fill="white"/>
</g>
<g opacity="0.8" filter="url(#filter1_d_103_10)">
<rect x="19" y="20" width="5" height="11" rx="1" fill="white"/>
<rect x="19" y="20" width="5" height="11" rx="1" fill="white"/>
<rect x="19" y="20" width="5" height="11" rx="1" fill="white"/>
</g>
<g opacity="0.7" filter="url(#filter2_d_103_10)">
<rect x="27" y="11" width="5" height="20" rx="1" fill="white"/>
<rect x="27" y="11" width="5" height="20" rx="1" fill="white"/>
<rect x="27" y="11" width="5" height="20" rx="1" fill="white"/>
</g>
<defs>
<filter id="filter0_d_103_10" x="7" y="8" width="13" height="31" filterUnits="userSpaceOnUse" color-interpolation-filters="sRGB">
<feFlood flood-opacity="0" result="BackgroundImageFix"/>
<feColorMatrix in="SourceAlpha" type="matrix" values="0 0 0 0 0 0 0 0 0 0 0 0 0 0 0 0 0 0 127 0" result="hardAlpha"/>
<feOffset dy="4"/>
<feGaussianBlur stdDeviation="2"/>
<feComposite in2="hardAlpha" operator="out"/>
<feColorMatrix type="matrix" values="0 0 0 0 0 0 0 0 0 0 0 0 0 0 0 0 0 0 0.25 0"/>
<feBlend mode="normal" in2="BackgroundImageFix" result="effect1_dropShadow_103_10"/>
<feBlend mode="normal" in="SourceGraphic" in2="effect1_dropShadow_103_10" result="shape"/>
</filter>
<filter id="filter1_d_103_10" x="15" y="20" width="13" height="19" filterUnits="userSpaceOnUse" color-interpolation-filters="sRGB">
<feFlood flood-opacity="0" result="BackgroundImageFix"/>
<feColorMatrix in="SourceAlpha" type="matrix" values="0 0 0 0 0 0 0 0 0 0 0 0 0 0 0 0 0 0 127 0" result="hardAlpha"/>
<feOffset dy="4"/>
<feGaussianBlur stdDeviation="2"/>
<feComposite in2="hardAlpha" operator="out"/>
<feColorMatrix type="matrix" values="0 0 0 0 0 0 0 0 0 0 0 0 0 0 0 0 0 0 0.25 0"/>
<feBlend mode="normal" in2="BackgroundImageFix" result="effect1_dropShadow_103_10"/>
<feBlend mode="normal" in="SourceGraphic" in2="effect1_dropShadow_103_10" result="shape"/>
</filter>
<filter id="filter2_d_103_10" x="23" y="11" width="13" height="28" filterUnits="userSpaceOnUse" color-interpolation-filters="sRGB">
<feFlood flood-opacity="0" result="BackgroundImageFix"/>
<feColorMatrix in="SourceAlpha" type="matrix" values="0 0 0 0 0 0 0 0 0 0 0 0 0 0 0 0 0 0 127 0" result="hardAlpha"/>
<feOffset dy="4"/>
<feGaussianBlur stdDeviation="2"/>
<feComposite in2="hardAlpha" operator="out"/>
<feColorMatrix type="matrix" values="0 0 0 0 0 0 0 0 0 0 0 0 0 0 0 0 0 0 0.25 0"/>
<feBlend mode="normal" in2="BackgroundImageFix" result="effect1_dropShadow_103_10"/>
<feBlend mode="normal" in="SourceGraphic" in2="effect1_dropShadow_103_10" result="shape"/>
</filter>
</defs>
</svg>
